solid eMachineShop01
  facet normal 0.000000E+000 0.000000E+000 1.000000E+000
    outer loop
      vertex 0.000000E+000 0.000000E+000 6.000000E+000
      vertex 3.100000E+002 0.000000E+000 6.000000E+000
      vertex 3.100000E+002 1.000000E+001 6.000000E+000
    endloop
  endfacet
  facet normal 0.000000E+000 0.000000E+000 1.000000E+000
    outer loop
      vertex 0.000000E+000 0.000000E+000 6.000000E+000
      vertex 3.100000E+002 1.000000E+001 6.000000E+000
      vertex 1.600000E+002 1.000000E+001 6.000000E+000
    endloop
  endfacet
  facet normal 0.000000E+000 0.000000E+000 1.000000E+000
    outer loop
      vertex 0.000000E+000 0.000000E+000 6.000000E+000
      vertex 1.600000E+002 1.000000E+001 6.000000E+000
      vertex 1.600000E+002 1.650000E+001 6.000000E+000
    endloop
  endfacet
  facet normal 0.000000E+000 0.000000E+000 1.000000E+000
    outer loop
      vertex 1.000000E+001 3.100000E+002 6.000000E+000
      vertex 0.000000E+000 3.100000E+002 6.000000E+000
      vertex 0.000000E+000 0.000000E+000 6.000000E+000
    endloop
  endfacet
  facet normal 0.000000E+000 0.000000E+000 1.000000E+000
    outer loop
      vertex 1.000000E+001 1.600000E+002 6.000000E+000
      vertex 1.000000E+001 3.100000E+002 6.000000E+000
      vertex 0.000000E+000 0.000000E+000 6.000000E+000
    endloop
  endfacet
  facet normal 0.000000E+000 0.000000E+000 1.000000E+000
    outer loop
      vertex 1.000000E+001 1.600000E+002 6.000000E+000
      vertex 0.000000E+000 0.000000E+000 6.000000E+000
      vertex 1.600000E+002 1.650000E+001 6.000000E+000
    endloop
  endfacet
  facet normal 0.000000E+000 0.000000E+000 1.000000E+000
    outer loop
      vertex 1.000000E+001 1.600000E+002 6.000000E+000
      vertex 1.600000E+002 1.650000E+001 6.000000E+000
      vertex 3.100000E+002 1.650000E+001 6.000000E+000
    endloop
  endfacet
  facet normal 0.000000E+000 0.000000E+000 1.000000E+000
    outer loop
      vertex 1.650000E+001 1.600000E+002 6.000000E+000
      vertex 1.000000E+001 1.600000E+002 6.000000E+000
      vertex 3.100000E+002 1.650000E+001 6.000000E+000
    endloop
  endfacet
  facet normal 0.000000E+000 0.000000E+000 1.000000E+000
    outer loop
      vertex 1.650000E+001 3.100000E+002 6.000000E+000
      vertex 1.650000E+001 1.600000E+002 6.000000E+000
      vertex 3.100000E+002 1.650000E+001 6.000000E+000
    endloop
  endfacet
  facet normal 0.000000E+000 0.000000E+000 1.000000E+000
    outer loop
      vertex 0.000000E+000 4.700000E+002 6.000000E+000
      vertex 0.000000E+000 3.100000E+002 6.000000E+000
      vertex 1.000000E+001 3.100000E+002 6.000000E+000
    endloop
  endfacet
  facet normal 0.000000E+000 0.000000E+000 1.000000E+000
    outer loop
      vertex 0.000000E+000 4.700000E+002 6.000000E+000
      vertex 1.000000E+001 3.100000E+002 6.000000E+000
      vertex 1.650000E+001 3.100000E+002 6.000000E+000
    endloop
  endfacet
  facet normal 0.000000E+000 0.000000E+000 1.000000E+000
    outer loop
      vertex 0.000000E+000 4.700000E+002 6.000000E+000
      vertex 1.650000E+001 3.100000E+002 6.000000E+000
      vertex 3.100000E+002 1.650000E+001 6.000000E+000
    endloop
  endfacet
  facet normal 0.000000E+000 0.000000E+000 1.000000E+000
    outer loop
      vertex 1.600000E+002 4.600000E+002 6.000000E+000
      vertex 1.600000E+002 4.700000E+002 6.000000E+000
      vertex 0.000000E+000 4.700000E+002 6.000000E+000
    endloop
  endfacet
  facet normal 0.000000E+000 0.000000E+000 1.000000E+000
    outer loop
      vertex 1.600000E+002 4.535000E+002 6.000000E+000
      vertex 1.600000E+002 4.600000E+002 6.000000E+000
      vertex 0.000000E+000 4.700000E+002 6.000000E+000
    endloop
  endfacet
  facet normal 0.000000E+000 0.000000E+000 1.000000E+000
    outer loop
      vertex 1.600000E+002 4.535000E+002 6.000000E+000
      vertex 0.000000E+000 4.700000E+002 6.000000E+000
      vertex 3.100000E+002 1.650000E+001 6.000000E+000
    endloop
  endfacet
  facet normal 0.000000E+000 0.000000E+000 1.000000E+000
    outer loop
      vertex 3.100000E+002 4.535000E+002 6.000000E+000
      vertex 1.600000E+002 4.535000E+002 6.000000E+000
      vertex 3.100000E+002 1.650000E+001 6.000000E+000
    endloop
  endfacet
  facet normal 0.000000E+000 0.000000E+000 1.000000E+000
    outer loop
      vertex 1.600000E+002 4.700000E+002 6.000000E+000
      vertex 1.600000E+002 4.600000E+002 6.000000E+000
      vertex 3.100000E+002 4.600000E+002 6.000000E+000
    endloop
  endfacet
  facet normal 0.000000E+000 0.000000E+000 1.000000E+000
    outer loop
      vertex 4.700000E+002 4.700000E+002 6.000000E+000
      vertex 1.600000E+002 4.700000E+002 6.000000E+000
      vertex 3.100000E+002 4.600000E+002 6.000000E+000
    endloop
  endfacet
  facet normal 0.000000E+000 0.000000E+000 1.000000E+000
    outer loop
      vertex 4.700000E+002 4.700000E+002 6.000000E+000
      vertex 3.100000E+002 4.600000E+002 6.000000E+000
      vertex 3.100000E+002 4.535000E+002 6.000000E+000
    endloop
  endfacet
  facet normal 0.000000E+000 0.000000E+000 1.000000E+000
    outer loop
      vertex 4.700000E+002 4.700000E+002 6.000000E+000
      vertex 3.100000E+002 4.535000E+002 6.000000E+000
      vertex 3.100000E+002 1.650000E+001 6.000000E+000
    endloop
  endfacet
  facet normal 0.000000E+000 0.000000E+000 1.000000E+000
    outer loop
      vertex 4.700000E+002 4.700000E+002 6.000000E+000
      vertex 3.100000E+002 1.650000E+001 6.000000E+000
      vertex 3.100000E+002 1.000000E+001 6.000000E+000
    endloop
  endfacet
  facet normal 0.000000E+000 0.000000E+000 1.000000E+000
    outer loop
      vertex 4.700000E+002 4.700000E+002 6.000000E+000
      vertex 3.100000E+002 1.000000E+001 6.000000E+000
      vertex 3.100000E+002 0.000000E+000 6.000000E+000
    endloop
  endfacet
  facet normal 0.000000E+000 0.000000E+000 1.000000E+000
    outer loop
      vertex 4.600000E+002 3.100000E+002 6.000000E+000
      vertex 4.700000E+002 3.100000E+002 6.000000E+000
      vertex 4.700000E+002 4.700000E+002 6.000000E+000
    endloop
  endfacet
  facet normal 0.000000E+000 0.000000E+000 1.000000E+000
    outer loop
      vertex 4.535000E+002 3.100000E+002 6.000000E+000
      vertex 4.600000E+002 3.100000E+002 6.000000E+000
      vertex 4.700000E+002 4.700000E+002 6.000000E+000
    endloop
  endfacet
  facet normal 0.000000E+000 0.000000E+000 1.000000E+000
    outer loop
      vertex 4.535000E+002 3.100000E+002 6.000000E+000
      vertex 4.700000E+002 4.700000E+002 6.000000E+000
      vertex 3.100000E+002 0.000000E+000 6.000000E+000
    endloop
  endfacet
  facet normal 0.000000E+000 0.000000E+000 1.000000E+000
    outer loop
      vertex 4.535000E+002 1.600000E+002 6.000000E+000
      vertex 4.535000E+002 3.100000E+002 6.000000E+000
      vertex 3.100000E+002 0.000000E+000 6.000000E+000
    endloop
  endfacet
  facet normal 0.000000E+000 0.000000E+000 1.000000E+000
    outer loop
      vertex 4.535000E+002 1.600000E+002 6.000000E+000
      vertex 3.100000E+002 0.000000E+000 6.000000E+000
      vertex 4.700000E+002 0.000000E+000 6.000000E+000
    endloop
  endfacet
  facet normal 0.000000E+000 0.000000E+000 1.000000E+000
    outer loop
      vertex 4.600000E+002 1.600000E+002 6.000000E+000
      vertex 4.535000E+002 1.600000E+002 6.000000E+000
      vertex 4.700000E+002 0.000000E+000 6.000000E+000
    endloop
  endfacet
  facet normal 0.000000E+000 0.000000E+000 1.000000E+000
    outer loop
      vertex 4.600000E+002 1.600000E+002 6.000000E+000
      vertex 4.700000E+002 0.000000E+000 6.000000E+000
      vertex 4.700000E+002 3.100000E+002 6.000000E+000
    endloop
  endfacet
  facet normal 0.000000E+000 0.000000E+000 1.000000E+000
    outer loop
      vertex 4.600000E+002 1.600000E+002 6.000000E+000
      vertex 4.700000E+002 3.100000E+002 6.000000E+000
      vertex 4.600000E+002 3.100000E+002 6.000000E+000
    endloop
  endfacet
  facet normal 0.000000E+000 0.000000E+000 -1.000000E+000
    outer loop
      vertex 0.000000E+000 0.000000E+000 0.000000E+000
      vertex 3.100000E+002 1.000000E+001 0.000000E+000
      vertex 3.100000E+002 0.000000E+000 0.000000E+000
    endloop
  endfacet
  facet normal 0.000000E+000 0.000000E+000 -1.000000E+000
    outer loop
      vertex 0.000000E+000 0.000000E+000 0.000000E+000
      vertex 1.600000E+002 1.000000E+001 0.000000E+000
      vertex 3.100000E+002 1.000000E+001 0.000000E+000
    endloop
  endfacet
  facet normal 0.000000E+000 0.000000E+000 -1.000000E+000
    outer loop
      vertex 0.000000E+000 0.000000E+000 0.000000E+000
      vertex 1.600000E+002 1.650000E+001 0.000000E+000
      vertex 1.600000E+002 1.000000E+001 0.000000E+000
    endloop
  endfacet
  facet normal 0.000000E+000 0.000000E+000 -1.000000E+000
    outer loop
      vertex 1.000000E+001 3.100000E+002 0.000000E+000
      vertex 0.000000E+000 0.000000E+000 0.000000E+000
      vertex 0.000000E+000 3.100000E+002 0.000000E+000
    endloop
  endfacet
  facet normal 0.000000E+000 0.000000E+000 -1.000000E+000
    outer loop
      vertex 1.000000E+001 1.600000E+002 0.000000E+000
      vertex 0.000000E+000 0.000000E+000 0.000000E+000
      vertex 1.000000E+001 3.100000E+002 0.000000E+000
    endloop
  endfacet
  facet normal 0.000000E+000 0.000000E+000 -1.000000E+000
    outer loop
      vertex 1.000000E+001 1.600000E+002 0.000000E+000
      vertex 1.600000E+002 1.650000E+001 0.000000E+000
      vertex 0.000000E+000 0.000000E+000 0.000000E+000
    endloop
  endfacet
  facet normal 0.000000E+000 0.000000E+000 -1.000000E+000
    outer loop
      vertex 1.000000E+001 1.600000E+002 0.000000E+000
      vertex 3.100000E+002 1.650000E+001 0.000000E+000
      vertex 1.600000E+002 1.650000E+001 0.000000E+000
    endloop
  endfacet
  facet normal 0.000000E+000 0.000000E+000 -1.000000E+000
    outer loop
      vertex 1.650000E+001 1.600000E+002 0.000000E+000
      vertex 3.100000E+002 1.650000E+001 0.000000E+000
      vertex 1.000000E+001 1.600000E+002 0.000000E+000
    endloop
  endfacet
  facet normal 0.000000E+000 0.000000E+000 -1.000000E+000
    outer loop
      vertex 1.650000E+001 3.100000E+002 0.000000E+000
      vertex 3.100000E+002 1.650000E+001 0.000000E+000
      vertex 1.650000E+001 1.600000E+002 0.000000E+000
    endloop
  endfacet
  facet normal 0.000000E+000 0.000000E+000 -1.000000E+000
    outer loop
      vertex 0.000000E+000 4.700000E+002 0.000000E+000
      vertex 1.000000E+001 3.100000E+002 0.000000E+000
      vertex 0.000000E+000 3.100000E+002 0.000000E+000
    endloop
  endfacet
  facet normal 0.000000E+000 0.000000E+000 -1.000000E+000
    outer loop
      vertex 0.000000E+000 4.700000E+002 0.000000E+000
      vertex 1.650000E+001 3.100000E+002 0.000000E+000
      vertex 1.000000E+001 3.100000E+002 0.000000E+000
    endloop
  endfacet
  facet normal 0.000000E+000 0.000000E+000 -1.000000E+000
    outer loop
      vertex 0.000000E+000 4.700000E+002 0.000000E+000
      vertex 3.100000E+002 1.650000E+001 0.000000E+000
      vertex 1.650000E+001 3.100000E+002 0.000000E+000
    endloop
  endfacet
  facet normal 0.000000E+000 0.000000E+000 -1.000000E+000
    outer loop
      vertex 1.600000E+002 4.600000E+002 0.000000E+000
      vertex 0.000000E+000 4.700000E+002 0.000000E+000
      vertex 1.600000E+002 4.700000E+002 0.000000E+000
    endloop
  endfacet
  facet normal 0.000000E+000 0.000000E+000 -1.000000E+000
    outer loop
      vertex 1.600000E+002 4.535000E+002 0.000000E+000
      vertex 0.000000E+000 4.700000E+002 0.000000E+000
      vertex 1.600000E+002 4.600000E+002 0.000000E+000
    endloop
  endfacet
  facet normal 0.000000E+000 0.000000E+000 -1.000000E+000
    outer loop
      vertex 1.600000E+002 4.535000E+002 0.000000E+000
      vertex 3.100000E+002 1.650000E+001 0.000000E+000
      vertex 0.000000E+000 4.700000E+002 0.000000E+000
    endloop
  endfacet
  facet normal 0.000000E+000 0.000000E+000 -1.000000E+000
    outer loop
      vertex 3.100000E+002 4.535000E+002 0.000000E+000
      vertex 3.100000E+002 1.650000E+001 0.000000E+000
      vertex 1.600000E+002 4.535000E+002 0.000000E+000
    endloop
  endfacet
  facet normal 0.000000E+000 0.000000E+000 -1.000000E+000
    outer loop
      vertex 1.600000E+002 4.700000E+002 0.000000E+000
      vertex 3.100000E+002 4.600000E+002 0.000000E+000
      vertex 1.600000E+002 4.600000E+002 0.000000E+000
    endloop
  endfacet
  facet normal 0.000000E+000 0.000000E+000 -1.000000E+000
    outer loop
      vertex 4.700000E+002 4.700000E+002 0.000000E+000
      vertex 3.100000E+002 4.600000E+002 0.000000E+000
      vertex 1.600000E+002 4.700000E+002 0.000000E+000
    endloop
  endfacet
  facet normal 0.000000E+000 0.000000E+000 -1.000000E+000
    outer loop
      vertex 4.700000E+002 4.700000E+002 0.000000E+000
      vertex 3.100000E+002 4.535000E+002 0.000000E+000
      vertex 3.100000E+002 4.600000E+002 0.000000E+000
    endloop
  endfacet
  facet normal 0.000000E+000 0.000000E+000 -1.000000E+000
    outer loop
      vertex 4.700000E+002 4.700000E+002 0.000000E+000
      vertex 3.100000E+002 1.650000E+001 0.000000E+000
      vertex 3.100000E+002 4.535000E+002 0.000000E+000
    endloop
  endfacet
  facet normal 0.000000E+000 0.000000E+000 -1.000000E+000
    outer loop
      vertex 4.700000E+002 4.700000E+002 0.000000E+000
      vertex 3.100000E+002 1.000000E+001 0.000000E+000
      vertex 3.100000E+002 1.650000E+001 0.000000E+000
    endloop
  endfacet
  facet normal 0.000000E+000 0.000000E+000 -1.000000E+000
    outer loop
      vertex 4.700000E+002 4.700000E+002 0.000000E+000
      vertex 3.100000E+002 0.000000E+000 0.000000E+000
      vertex 3.100000E+002 1.000000E+001 0.000000E+000
    endloop
  endfacet
  facet normal 0.000000E+000 0.000000E+000 -1.000000E+000
    outer loop
      vertex 4.600000E+002 3.100000E+002 0.000000E+000
      vertex 4.700000E+002 4.700000E+002 0.000000E+000
      vertex 4.700000E+002 3.100000E+002 0.000000E+000
    endloop
  endfacet
  facet normal 0.000000E+000 0.000000E+000 -1.000000E+000
    outer loop
      vertex 4.535000E+002 3.100000E+002 0.000000E+000
      vertex 4.700000E+002 4.700000E+002 0.000000E+000
      vertex 4.600000E+002 3.100000E+002 0.000000E+000
    endloop
  endfacet
  facet normal 0.000000E+000 0.000000E+000 -1.000000E+000
    outer loop
      vertex 4.535000E+002 3.100000E+002 0.000000E+000
      vertex 3.100000E+002 0.000000E+000 0.000000E+000
      vertex 4.700000E+002 4.700000E+002 0.000000E+000
    endloop
  endfacet
  facet normal 0.000000E+000 0.000000E+000 -1.000000E+000
    outer loop
      vertex 4.535000E+002 1.600000E+002 0.000000E+000
      vertex 3.100000E+002 0.000000E+000 0.000000E+000
      vertex 4.535000E+002 3.100000E+002 0.000000E+000
    endloop
  endfacet
  facet normal 0.000000E+000 0.000000E+000 -1.000000E+000
    outer loop
      vertex 4.535000E+002 1.600000E+002 0.000000E+000
      vertex 4.700000E+002 0.000000E+000 0.000000E+000
      vertex 3.100000E+002 0.000000E+000 0.000000E+000
    endloop
  endfacet
  facet normal 0.000000E+000 0.000000E+000 -1.000000E+000
    outer loop
      vertex 4.600000E+002 1.600000E+002 0.000000E+000
      vertex 4.700000E+002 0.000000E+000 0.000000E+000
      vertex 4.535000E+002 1.600000E+002 0.000000E+000
    endloop
  endfacet
  facet normal 0.000000E+000 0.000000E+000 -1.000000E+000
    outer loop
      vertex 4.600000E+002 1.600000E+002 0.000000E+000
      vertex 4.700000E+002 3.100000E+002 0.000000E+000
      vertex 4.700000E+002 0.000000E+000 0.000000E+000
    endloop
  endfacet
  facet normal 0.000000E+000 0.000000E+000 -1.000000E+000
    outer loop
      vertex 4.600000E+002 1.600000E+002 0.000000E+000
      vertex 4.600000E+002 3.100000E+002 0.000000E+000
      vertex 4.700000E+002 3.100000E+002 0.000000E+000
    endloop
  endfacet
  facet normal 0.000000E+000 -1.000000E+000 6.123032E-017
    outer loop
      vertex 0.000000E+000 3.673819E-016 6.000000E+000
      vertex 0.000000E+000 0.000000E+000 0.000000E+000
      vertex 3.100000E+002 0.000000E+000 0.000000E+000
    endloop
  endfacet
  facet normal 0.000000E+000 -1.000000E+000 6.123032E-017
    outer loop
      vertex 0.000000E+000 3.673819E-016 6.000000E+000
      vertex 3.100000E+002 0.000000E+000 0.000000E+000
      vertex 4.700000E+002 0.000000E+000 0.000000E+000
    endloop
  endfacet
  facet normal 0.000000E+000 -1.000000E+000 6.123032E-017
    outer loop
      vertex 0.000000E+000 3.673819E-016 6.000000E+000
      vertex 4.700000E+002 0.000000E+000 0.000000E+000
      vertex 4.700000E+002 3.673819E-016 6.000000E+000
    endloop
  endfacet
  facet normal 0.000000E+000 -1.000000E+000 6.123032E-017
    outer loop
      vertex 0.000000E+000 3.673819E-016 6.000000E+000
      vertex 4.700000E+002 3.673819E-016 6.000000E+000
      vertex 3.100000E+002 3.673819E-016 6.000000E+000
    endloop
  endfacet
  facet normal 1.000000E+000 -6.123032E-017 6.123032E-017
    outer loop
      vertex 4.700000E+002 2.249491E-032 6.000000E+000
      vertex 4.700000E+002 0.000000E+000 0.000000E+000
      vertex 4.700000E+002 3.100000E+002 1.161721E-030
    endloop
  endfacet
  facet normal 1.000000E+000 -6.123032E-017 6.123032E-017
    outer loop
      vertex 4.700000E+002 2.249491E-032 6.000000E+000
      vertex 4.700000E+002 3.100000E+002 1.161721E-030
      vertex 4.700000E+002 4.700000E+002 0.000000E+000
    endloop
  endfacet
  facet normal 1.000000E+000 -6.123032E-017 6.123032E-017
    outer loop
      vertex 4.700000E+002 2.249491E-032 6.000000E+000
      vertex 4.700000E+002 4.700000E+002 0.000000E+000
      vertex 4.700000E+002 4.700000E+002 6.000000E+000
    endloop
  endfacet
  facet normal 1.000000E+000 -6.123032E-017 6.123032E-017
    outer loop
      vertex 4.700000E+002 2.249491E-032 6.000000E+000
      vertex 4.700000E+002 4.700000E+002 6.000000E+000
      vertex 4.700000E+002 3.100000E+002 6.000000E+000
    endloop
  endfacet
  facet normal 1.136868E-016 1.000000E+000 6.123032E-017
    outer loop
      vertex 4.700000E+002 4.700000E+002 6.000000E+000
      vertex 4.700000E+002 4.700000E+002 0.000000E+000
      vertex 1.600000E+002 4.700000E+002 5.112188E-030
    endloop
  endfacet
  facet normal 1.136868E-016 1.000000E+000 6.123032E-017
    outer loop
      vertex 4.700000E+002 4.700000E+002 6.000000E+000
      vertex 1.600000E+002 4.700000E+002 5.112188E-030
      vertex 0.000000E+000 4.700000E+002 0.000000E+000
    endloop
  endfacet
  facet normal 1.136868E-016 1.000000E+000 6.123032E-017
    outer loop
      vertex 4.700000E+002 4.700000E+002 6.000000E+000
      vertex 0.000000E+000 4.700000E+002 0.000000E+000
      vertex 0.000000E+000 4.700000E+002 6.000000E+000
    endloop
  endfacet
  facet normal 1.136868E-016 1.000000E+000 6.123032E-017
    outer loop
      vertex 4.700000E+002 4.700000E+002 6.000000E+000
      vertex 0.000000E+000 4.700000E+002 6.000000E+000
      vertex 1.600000E+002 4.700000E+002 6.000000E+000
    endloop
  endfacet
  facet normal -1.000000E+000 2.273737E-016 6.123032E-017
    outer loop
      vertex 3.673819E-016 4.700000E+002 6.000000E+000
      vertex 0.000000E+000 4.700000E+002 0.000000E+000
      vertex -2.939055E-014 3.100000E+002 1.799593E-030
    endloop
  endfacet
  facet normal -1.000000E+000 2.273737E-016 6.123032E-017
    outer loop
      vertex 3.673819E-016 4.700000E+002 6.000000E+000
      vertex -2.939055E-014 3.100000E+002 1.799593E-030
      vertex -8.633475E-014 0.000000E+000 0.000000E+000
    endloop
  endfacet
  facet normal -1.000000E+000 2.273737E-016 6.123032E-017
    outer loop
      vertex 3.673819E-016 4.700000E+002 6.000000E+000
      vertex -8.633475E-014 0.000000E+000 0.000000E+000
      vertex -8.596737E-014 0.000000E+000 6.000000E+000
    endloop
  endfacet
  facet normal -1.000000E+000 2.273737E-016 6.123032E-017
    outer loop
      vertex 3.673819E-016 4.700000E+002 6.000000E+000
      vertex -8.596737E-014 0.000000E+000 6.000000E+000
      vertex -2.902317E-014 3.100000E+002 6.000000E+000
    endloop
  endfacet
  facet normal 0.000000E+000 -1.000000E+000 6.123032E-017
    outer loop
      vertex 1.600000E+002 4.600000E+002 0.000000E+000
      vertex 3.100000E+002 4.600000E+002 0.000000E+000
      vertex 3.100000E+002 4.600000E+002 6.000000E+000
    endloop
  endfacet
  facet normal 0.000000E+000 -1.000000E+000 6.123032E-017
    outer loop
      vertex 1.600000E+002 4.600000E+002 0.000000E+000
      vertex 3.100000E+002 4.600000E+002 6.000000E+000
      vertex 1.600000E+002 4.600000E+002 6.000000E+000
    endloop
  endfacet
  facet normal -1.000000E+000 2.273737E-016 6.123032E-017
    outer loop
      vertex 3.100000E+002 4.600000E+002 0.000000E+000
      vertex 3.100000E+002 4.535000E+002 0.000000E+000
      vertex 3.100000E+002 4.535000E+002 6.000000E+000
    endloop
  endfacet
  facet normal -1.000000E+000 2.273737E-016 6.123032E-017
    outer loop
      vertex 3.100000E+002 4.600000E+002 0.000000E+000
      vertex 3.100000E+002 4.535000E+002 6.000000E+000
      vertex 3.100000E+002 4.600000E+002 6.000000E+000
    endloop
  endfacet
  facet normal 1.136868E-016 1.000000E+000 6.123032E-017
    outer loop
      vertex 3.100000E+002 4.535000E+002 0.000000E+000
      vertex 1.600000E+002 4.535000E+002 0.000000E+000
      vertex 1.600000E+002 4.535000E+002 6.000000E+000
    endloop
  endfacet
  facet normal 1.136868E-016 1.000000E+000 6.123032E-017
    outer loop
      vertex 3.100000E+002 4.535000E+002 0.000000E+000
      vertex 1.600000E+002 4.535000E+002 6.000000E+000
      vertex 3.100000E+002 4.535000E+002 6.000000E+000
    endloop
  endfacet
  facet normal 1.000000E+000 -1.136868E-016 6.123032E-017
    outer loop
      vertex 1.600000E+002 4.535000E+002 0.000000E+000
      vertex 1.600000E+002 4.600000E+002 0.000000E+000
      vertex 1.600000E+002 4.600000E+002 6.000000E+000
    endloop
  endfacet
  facet normal 1.000000E+000 -1.136868E-016 6.123032E-017
    outer loop
      vertex 1.600000E+002 4.535000E+002 0.000000E+000
      vertex 1.600000E+002 4.600000E+002 6.000000E+000
      vertex 1.600000E+002 4.535000E+002 6.000000E+000
    endloop
  endfacet
  facet normal 0.000000E+000 -1.000000E+000 6.123032E-017
    outer loop
      vertex 1.600000E+002 1.650000E+001 0.000000E+000
      vertex 3.100000E+002 1.650000E+001 0.000000E+000
      vertex 3.100000E+002 1.650000E+001 6.000000E+000
    endloop
  endfacet
  facet normal 0.000000E+000 -1.000000E+000 6.123032E-017
    outer loop
      vertex 1.600000E+002 1.650000E+001 0.000000E+000
      vertex 3.100000E+002 1.650000E+001 6.000000E+000
      vertex 1.600000E+002 1.650000E+001 6.000000E+000
    endloop
  endfacet
  facet normal -1.000000E+000 1.847411E-016 6.123032E-017
    outer loop
      vertex 3.100000E+002 1.650000E+001 0.000000E+000
      vertex 3.100000E+002 1.000000E+001 0.000000E+000
      vertex 3.100000E+002 1.000000E+001 6.000000E+000
    endloop
  endfacet
  facet normal -1.000000E+000 1.847411E-016 6.123032E-017
    outer loop
      vertex 3.100000E+002 1.650000E+001 0.000000E+000
      vertex 3.100000E+002 1.000000E+001 6.000000E+000
      vertex 3.100000E+002 1.650000E+001 6.000000E+000
    endloop
  endfacet
  facet normal 1.136868E-016 1.000000E+000 6.123032E-017
    outer loop
      vertex 3.100000E+002 1.000000E+001 0.000000E+000
      vertex 1.600000E+002 1.000000E+001 0.000000E+000
      vertex 1.600000E+002 1.000000E+001 6.000000E+000
    endloop
  endfacet
  facet normal 1.136868E-016 1.000000E+000 6.123032E-017
    outer loop
      vertex 3.100000E+002 1.000000E+001 0.000000E+000
      vertex 1.600000E+002 1.000000E+001 6.000000E+000
      vertex 3.100000E+002 1.000000E+001 6.000000E+000
    endloop
  endfacet
  facet normal 1.000000E+000 -6.039613E-017 6.123032E-017
    outer loop
      vertex 1.600000E+002 1.000000E+001 0.000000E+000
      vertex 1.600000E+002 1.650000E+001 0.000000E+000
      vertex 1.600000E+002 1.650000E+001 6.000000E+000
    endloop
  endfacet
  facet normal 1.000000E+000 -6.039613E-017 6.123032E-017
    outer loop
      vertex 1.600000E+002 1.000000E+001 0.000000E+000
      vertex 1.600000E+002 1.650000E+001 6.000000E+000
      vertex 1.600000E+002 1.000000E+001 6.000000E+000
    endloop
  endfacet
  facet normal 0.000000E+000 -1.000000E+000 6.123032E-017
    outer loop
      vertex 1.000000E+001 3.100000E+002 0.000000E+000
      vertex 1.650000E+001 3.100000E+002 0.000000E+000
      vertex 1.650000E+001 3.100000E+002 6.000000E+000
    endloop
  endfacet
  facet normal 0.000000E+000 -1.000000E+000 6.123032E-017
    outer loop
      vertex 1.000000E+001 3.100000E+002 0.000000E+000
      vertex 1.650000E+001 3.100000E+002 6.000000E+000
      vertex 1.000000E+001 3.100000E+002 6.000000E+000
    endloop
  endfacet
  facet normal -1.000000E+000 2.273737E-016 6.123032E-017
    outer loop
      vertex 1.650000E+001 3.100000E+002 0.000000E+000
      vertex 1.650000E+001 1.600000E+002 0.000000E+000
      vertex 1.650000E+001 1.600000E+002 6.000000E+000
    endloop
  endfacet
  facet normal -1.000000E+000 2.273737E-016 6.123032E-017
    outer loop
      vertex 1.650000E+001 3.100000E+002 0.000000E+000
      vertex 1.650000E+001 1.600000E+002 6.000000E+000
      vertex 1.650000E+001 3.100000E+002 6.000000E+000
    endloop
  endfacet
  facet normal 1.207923E-016 1.000000E+000 6.123032E-017
    outer loop
      vertex 1.650000E+001 1.600000E+002 0.000000E+000
      vertex 1.000000E+001 1.600000E+002 0.000000E+000
      vertex 1.000000E+001 1.600000E+002 6.000000E+000
    endloop
  endfacet
  facet normal 1.207923E-016 1.000000E+000 6.123032E-017
    outer loop
      vertex 1.650000E+001 1.600000E+002 0.000000E+000
      vertex 1.000000E+001 1.600000E+002 6.000000E+000
      vertex 1.650000E+001 1.600000E+002 6.000000E+000
    endloop
  endfacet
  facet normal 1.000000E+000 -5.684342E-017 6.123032E-017
    outer loop
      vertex 1.000000E+001 1.600000E+002 0.000000E+000
      vertex 1.000000E+001 3.100000E+002 0.000000E+000
      vertex 1.000000E+001 3.100000E+002 6.000000E+000
    endloop
  endfacet
  facet normal 1.000000E+000 -5.684342E-017 6.123032E-017
    outer loop
      vertex 1.000000E+001 1.600000E+002 0.000000E+000
      vertex 1.000000E+001 3.100000E+002 6.000000E+000
      vertex 1.000000E+001 1.600000E+002 6.000000E+000
    endloop
  endfacet
  facet normal 0.000000E+000 -1.000000E+000 6.123032E-017
    outer loop
      vertex 4.535000E+002 3.100000E+002 0.000000E+000
      vertex 4.600000E+002 3.100000E+002 0.000000E+000
      vertex 4.600000E+002 3.100000E+002 6.000000E+000
    endloop
  endfacet
  facet normal 0.000000E+000 -1.000000E+000 6.123032E-017
    outer loop
      vertex 4.535000E+002 3.100000E+002 0.000000E+000
      vertex 4.600000E+002 3.100000E+002 6.000000E+000
      vertex 4.535000E+002 3.100000E+002 6.000000E+000
    endloop
  endfacet
  facet normal -1.000000E+000 2.273737E-016 6.123032E-017
    outer loop
      vertex 4.600000E+002 3.100000E+002 0.000000E+000
      vertex 4.600000E+002 1.600000E+002 0.000000E+000
      vertex 4.600000E+002 1.600000E+002 6.000000E+000
    endloop
  endfacet
  facet normal -1.000000E+000 2.273737E-016 6.123032E-017
    outer loop
      vertex 4.600000E+002 3.100000E+002 0.000000E+000
      vertex 4.600000E+002 1.600000E+002 6.000000E+000
      vertex 4.600000E+002 3.100000E+002 6.000000E+000
    endloop
  endfacet
  facet normal 1.136868E-016 1.000000E+000 6.123032E-017
    outer loop
      vertex 4.600000E+002 1.600000E+002 0.000000E+000
      vertex 4.535000E+002 1.600000E+002 0.000000E+000
      vertex 4.535000E+002 1.600000E+002 6.000000E+000
    endloop
  endfacet
  facet normal 1.136868E-016 1.000000E+000 6.123032E-017
    outer loop
      vertex 4.600000E+002 1.600000E+002 0.000000E+000
      vertex 4.535000E+002 1.600000E+002 6.000000E+000
      vertex 4.600000E+002 1.600000E+002 6.000000E+000
    endloop
  endfacet
  facet normal 1.000000E+000 -5.684342E-017 6.123032E-017
    outer loop
      vertex 4.535000E+002 1.600000E+002 0.000000E+000
      vertex 4.535000E+002 3.100000E+002 0.000000E+000
      vertex 4.535000E+002 3.100000E+002 6.000000E+000
    endloop
  endfacet
  facet normal 1.000000E+000 -5.684342E-017 6.123032E-017
    outer loop
      vertex 4.535000E+002 1.600000E+002 0.000000E+000
      vertex 4.535000E+002 3.100000E+002 6.000000E+000
      vertex 4.535000E+002 1.600000E+002 6.000000E+000
    endloop
  endfacet
endsolid eMachineShop01
